<svg xmlns="http://www.w3.org/2000/svg"><symbol id="bg" viewBox="0 0 116 109"><path d="M66.622 108.676c-11.9 0-24.5-4.8-34.6-13.6-11.6-10.2-21.5-27-25.3-42.8-4.6-19.2.1-34.8 13.1-44l.3.4-.3-.4c5.8-4.1 13.7-6.8 22.9-7.8 7.9-.9 16.6-.5 24.6 1l-.1.5.1-.5c18.4 3.5 32.4 13.8 39.4 28.9 6.7 14.6 6.5 32.1-.7 49.3l-.9-.4c7.1-17 7.3-34.2.7-48.5-6.8-14.8-20.6-24.9-38.7-28.3-7.9-1.5-16.5-1.9-24.3-1-9.1 1-16.8 3.6-22.4 7.6-12.7 9-17.2 24.2-12.7 42.9 3.7 15.6 13.5 32.2 24.9 42.2 14.7 12.9 34.7 17 49.9 10.1 9.8-4.4 17.8-13.3 22.7-25l.9.4c-5 11.9-13.2 21-23.2 25.5-5 2.4-10.6 3.5-16.3 3.5z" fill="#DB2526"/><path d="M31.503 8.963c-12.925 7.91-27.28 21.952-30.626 37-7.81 35.149 38.334 56.528 67.28 56.028 18.392-.319 37.4-9.99 44.594-26.644 4.68-10.836 3.969-23.412 0-34.522-12.634-35.388-47.31-52.622-81.248-31.862z" fill="#518B26"/></symbol><symbol id="one" viewBox="-36 -30 116 109"><path d="M43.462 17.627a7.89 7.89 0 00-4.795-7.43c-.431-2.771-2.664-4.937-5.44-5.304a4.305 4.305 0 00-.156-.823c-.49-1.671-1.963-2.93-3.665-3.131a4.368 4.368 0 00-3.034.758 4.719 4.719 0 00-2.606-.79 4.771 4.771 0 00-4.71 4.05c-.085.018-.167.042-.25.062a8.067 8.067 0 00-.251-.558C17.337 2.05 15.185.648 13.192.97c-1.309.212-2.393 1.101-3.029 2.442-1.15-.53-2.325-.62-3.386-.246-1.13.399-2.01 1.25-2.541 2.463-.705 1.608-.705 3.675-.024 5.641-.918.63-1.605 1.557-2.006 2.718-.674 1.95-.449 4.304.617 6.46.117.235.245.468.384.698a5.357 5.357 0 00-2.153 2.795c-.639 1.87-.356 4.072.775 6.042a9.026 9.026 0 002.01 2.398c-.269 1.12-.066 2.352.586 3.467.918 1.566 2.57 2.622 4.309 2.791 2.74 5.146 6.14 7.356 11.371 9.573l.058.026a4.51 4.51 0 002.404.668 5.29 5.29 0 001.438-.206c.007-.002.015-.001.023-.004l.009-.006c.39-.114.762-.265 1.092-.457 1.583-.924 2.224-2.503 1.673-4.119-1.581-4.639-1.453-8.122.383-10.352 3.176-3.858 10.545-2.91 10.617-2.898l.858.117.085-.86c.012-.114.258-2.801-1.31-4.626a4.385 4.385 0 00-.286-.303 7.518 7.518 0 001.312-.421c2.974-1.257 4.938-4.06 5.001-7.144zM9.995 37.449l-.234-.458-.515.003h-.021c-1.313 0-2.662-.797-3.36-1.99-.509-.868-.612-1.816-.286-2.601l.254-.608-.533-.388a7.328 7.328 0 01-2.025-2.256c-.891-1.554-1.127-3.257-.643-4.673.362-1.06 1.089-1.84 2.1-2.258l.989-.408-.636-.858a8.307 8.307 0 01-.767-1.247c-.856-1.73-1.057-3.665-.535-5.174.345-1 .977-1.744 1.826-2.15l.714-.341-.304-.732-.037-.079c-.733-1.73-.816-3.571-.219-4.932.238-.543.704-1.255 1.569-1.56.832-.293 1.827-.09 2.807.57l.962.648.307-1.12c.345-1.256 1.092-2.065 2.05-2.22 1.25-.213 2.732.864 3.607 2.596.07.139.135.28.195.426-.02.01-.035.025-.054.036a5.763 5.763 0 00-.952.706 5.874 5.874 0 00-.889 1.003l-.056.083a6.154 6.154 0 00-.397.68c-.029.058-.059.116-.086.174a5.94 5.94 0 00-.267.705 5.547 5.547 0 00-.227 1.06 5.859 5.859 0 00-.027 1.153 6.706 6.706 0 00-5.52 6.614c0 .954.205 1.9.6 2.77A5.14 5.14 0 008 24.142a5.165 5.165 0 002.873 4.62c-.004.445.002.88.017 1.306.005.14.016.274.023.412.014.284.03.566.054.842.013.158.032.312.047.467a20.201 20.201 0 00.284 1.905 20.125 20.125 0 00.257 1.137c.038.144.074.288.113.431.066.234.138.465.212.694.04.126.079.254.121.38.094.275.198.548.305.82.029.074.055.15.085.225.139.343.288.684.447 1.022.045.096.095.19.142.286.117.242.237.483.365.723.068.129.141.257.213.386.114.206.23.412.35.616.083.14.17.279.254.417a28.596 28.596 0 001.048 1.592 28.937 28.937 0 00.744 1.024c.106.14.21.282.319.424.162.21.33.424.5.638.103.13.203.26.31.391l.027.036c-3.063-1.707-5.227-3.781-7.114-7.487zm24.119-13.923l-.222-.037-.807.186-.089 1.84.833.045c1.026.052 1.79.385 2.334 1.015.662.764.862 1.82.916 2.546-2.294-.15-8.126-.127-11.179 3.575-2.231 2.706-2.458 6.728-.678 11.954.395 1.159-.416 1.838-.935 2.14-.037.023-.079.037-.116.057-1.631-4.013-2.65-7.583-3.198-10.75-.003-.02-.005-.039-.009-.058-.433-2.526-.574-4.797-.493-6.83 1.168-1.991 4.6-2.071 4.634-2.072a.834.834 0 00-.012-1.668h-.01c-.136.002-2.513.054-4.4 1.236.23-1.651.614-3.114 1.088-4.413a.815.815 0 00.193-.518 18.107 18.107 0 012.067-3.82c3.739-.777 6.56.392 6.622.418a.836.836 0 001.098-.428.835.835 0 00-.429-1.1c-.116-.05-2.416-1.032-5.724-.79 1.615-1.686 3.034-2.45 3.245-2.557 1.212-.58 2.982.17 3.563.509a.833.833 0 10.846-1.437c-.096-.057-1.97-1.14-3.89-.923.164-.676.528-1.29.714-1.538a.833.833 0 10-1.325-1.011c-.053.067-1.146 1.518-1.144 3.189-1.213.743-4.348 2.995-6.54 7.52a18.61 18.61 0 00-.347.77c-2.274-1.556-1.9-4.323-1.88-4.457a.834.834 0 00-1.647-.26c-.242 1.513.105 4.632 2.915 6.307-.62 1.825-1.091 4.003-1.236 6.573a.821.821 0 00-.014.24c-.086 1.802-.003 3.8.287 5.99-1.057-.583-1.54-1.434-1.572-1.492a.835.835 0 00-1.474.782c.044.084 1.043 1.93 3.35 2.642.56 3.076 1.545 6.514 3.08 10.332a2.859 2.859 0 01-1.49-.417v-.003a3.378 3.378 0 01-.239-.17c-.09-.074-.182-.146-.262-.236l-.013-.012-.35-.399c-5.222-6.01-7.836-10.405-7.628-17.757l.018-.608-.574-.201a3.495 3.495 0 01-2.327-3.287c0-1.048.465-2.03 1.275-2.696l.547-.449-.355-.613a5.045 5.045 0 014.166-7.579l1.013-.042-.237-.986a4.266 4.266 0 01-.122-.996c0-.256.028-.505.072-.75.011-.063.029-.123.042-.184a4.3 4.3 0 01.542-1.326l.013-.023c.269-.42.612-.788 1.006-1.094.054-.041.112-.078.167-.117a4.312 4.312 0 01.69-.392 4.194 4.194 0 011.415-.372l.77-.058v-.841a3.105 3.105 0 013.098-3.05 3.09 3.09 0 012.066.808l.585.528.56-.554a2.695 2.695 0 012.233-.76c1.047.123 1.956.904 2.26 1.943.1.343.13.691.09 1.035l-.086.93h.938a4.676 4.676 0 014.65 4.344l.039.547.518.182a6.226 6.226 0 014.176 6.016c-.05 2.426-1.614 4.64-3.983 5.64-1.192.503-2.402.597-3.698.292z" fill="#fff"/></symbol><symbol id="two" viewBox="-35 -30 116 109"><path d="M24 0C10.766 0 0 10.766 0 24s10.766 24 24 24 24-10.766 24-24S37.234 0 24 0zm0 46.125C11.8 46.125 1.875 36.2 1.875 24S11.8 1.875 24 1.875 46.125 11.8 46.125 24 36.2 46.125 24 46.125z" fill="#fff"/><path d="M24 5.25a18.668 18.668 0 00-14.661 7.062.938.938 0 001.465 1.17A16.802 16.802 0 0124 7.124c9.305 0 16.875 7.57 16.875 16.875S33.305 40.875 24 40.875 7.125 33.305 7.125 24c0-1.119.11-2.238.327-3.325a.937.937 0 10-1.838-.367A18.88 18.88 0 005.25 24c0 10.339 8.411 18.75 18.75 18.75S42.75 34.339 42.75 24 34.339 5.25 24 5.25z" fill="#fff"/><path d="M14.266 12.173a.937.937 0 00-.938.937v6.563c0 1.53.737 2.891 1.875 3.747v10.532a2.816 2.816 0 002.813 2.813 2.816 2.816 0 002.812-2.813V23.42a4.683 4.683 0 001.875-3.747V13.11a.937.937 0 10-1.875 0v4.688h-1.875V13.11a.937.937 0 10-1.875 0v4.688h-1.875V13.11a.937.937 0 00-.937-.937zm4.687 21.78a.939.939 0 01-1.875 0v-9.687a4.687 4.687 0 001.875 0v9.686zm-.937-11.468a2.816 2.816 0 01-2.813-2.812h5.625a2.816 2.816 0 01-2.812 2.812zm11.882 14.28a2.816 2.816 0 002.813-2.813V22.718c1.453-.833 2.344-2.347 2.344-4.23 0-1.477-.513-3.203-1.372-4.615-1.035-1.7-2.379-2.637-3.785-2.637-1.405 0-2.75.936-3.784 2.637-.859 1.412-1.372 3.138-1.372 4.615 0 1.883.891 3.397 2.344 4.23v11.234a2.816 2.816 0 002.812 2.813zm.938-2.813a.938.938 0 01-1.875 0V23.354a6.381 6.381 0 001.875 0v10.598zm-.938-20.841c.716 0 1.511.632 2.183 1.736.678 1.114 1.099 2.51 1.099 3.641 0 2.256-1.695 3.06-3.282 3.06-1.586 0-3.28-.804-3.28-3.06 0-2.249 1.653-5.377 3.28-5.377zM7.844 17.419a.937.937 0 10.002-1.875.937.937 0 00-.002 1.875z" fill="#fff"/></symbol><symbol id="three" viewBox="-34 -29 116 109"><path d="M47.357 24.52h-.737c-.071-.433-.108-.84-.026-1.142.144-.531.618-1.094 1.077-1.638.65-.77 1.32-1.567 1.329-2.54.01-1.223-.834-2.133-1.58-2.936-.404-.436-.787-.848-.935-1.209-.177-.432-.264-1.017-.349-1.582-.176-1.178-.376-2.513-1.5-3.09-1.126-.576-2.327.042-3.387.587-.507.261-1.032.532-1.486.64-.34.081-.843.03-1.29-.024a.704.704 0 00-.168 1.397c.593.071 1.22.13 1.784-.005.62-.148 1.222-.458 1.804-.758.832-.428 1.619-.833 2.101-.586.482.248.613 1.122.751 2.047.097.648.197 1.318.44 1.908.244.597.732 1.123 1.204 1.632.595.64 1.21 1.303 1.205 1.968-.004.465-.51 1.065-.998 1.645-.557.661-1.133 1.345-1.359 2.175-.13.48-.109 1-.038 1.51h-4.722c-.011-.617-.277-1.171-.638-1.694a47.017 47.017 0 001.247-4.01.703.703 0 10-1.36-.356 45.726 45.726 0 01-.924 3.071c-.41-.497-.79-1.002-.922-1.489-.13-.481.005-1.173.148-1.906.205-1.05.438-2.24-.08-3.25-.517-1.01-1.62-1.516-2.593-1.963-.678-.311-1.318-.605-1.632-.991-.382-.471-.578-1.248-.768-2-.263-1.046-.536-2.129-1.367-2.738-1.05-.768-2.37-.603-3.534-.457-.643.08-1.25.157-1.67.056-.499-.119-1.07-.412-1.623-.697-1.132-.582-2.416-1.243-3.606-.633-1.13.579-1.379 1.896-1.562 3.106-.565-.264-1.07-.526-1.339-.856-.382-.471-.578-1.248-.767-2-.264-1.046-.537-2.128-1.368-2.738-1.049-.768-2.369-.602-3.534-.457-.643.08-1.25.157-1.67.057-.499-.12-1.07-.413-1.622-.697C8.16 1.294 6.876.634 5.687 1.243c-1.19.61-1.404 2.037-1.592 3.297-.092.615-.187 1.25-.382 1.725-.163.399-.58.848-1.02 1.323-.8.86-1.705 1.835-1.693 3.135.009 1.03.728 1.884 1.424 2.71.5.592 1.016 1.205 1.175 1.79.13.48-.005 1.172-.148 1.905-.206 1.05-.439 2.24.079 3.25.518 1.01 1.62 1.516 2.592 1.963.678.311 1.32.606 1.634.993.243.3.41.723.549 1.185H2.643c-.928-.005-1.693.805-1.64 1.73a17.539 17.539 0 002.066 7.343.703.703 0 101.24-.664 16.146 16.146 0 01-1.902-6.76c-.008-.142.082-.238.236-.242h44.714c.155.005.244.1.236.243a16.29 16.29 0 01-4.754 10.599c-3.149 3.148-7.16 4.77-11.545 4.782H18.706c-4.945-.001-9.503-2.142-12.662-6.02a.703.703 0 10-1.09.89 17.695 17.695 0 008.32 5.688v2.008A4.89 4.89 0 0018.158 49h13.684a4.89 4.89 0 004.884-4.885v-2.004a17.657 17.657 0 007.107-4.349 17.694 17.694 0 005.164-11.513 1.658 1.658 0 00-1.64-1.73zm-29.92 0a49.113 49.113 0 01-4.451-8.394 49.039 49.039 0 01-2.073-6.19.703.703 0 00-1.36.356 50.46 50.46 0 002.132 6.369 50.466 50.466 0 004.075 7.858H9.766c-.198-.746-.44-1.483-.919-2.072-.52-.641-1.343-1.019-2.138-1.384-.803-.369-1.632-.75-1.928-1.326-.295-.577-.12-1.473.05-2.34.168-.858.341-1.745.125-2.542-.24-.886-.859-1.62-1.457-2.329-.535-.634-1.088-1.291-1.093-1.815-.006-.74.667-1.466 1.317-2.167.507-.546 1.03-1.11 1.291-1.746.26-.632.367-1.353.472-2.05.151-1.015.295-1.973.842-2.253.547-.28 1.409.163 2.321.632.627.323 1.275.656 1.94.815.667.159 1.432.063 2.17-.03.95-.118 1.931-.24 2.529.197.422.31.632 1.142.835 1.947.227.9.461 1.83 1.04 2.543.52.64 1.342 1.018 2.137 1.383.802.368 1.632.75 1.928 1.326.295.577.12 1.472-.049 2.339-.168.858-.342 1.746-.125 2.543.096.356.256.686.436.983a6.005 6.005 0 00-2.823 7.346h-1.23zm10.98 0h-8.221a4.588 4.588 0 01-.484-2.051 4.599 4.599 0 014.594-4.594 4.599 4.599 0 014.594 4.594c0 .715-.167 1.416-.483 2.05zm4.912 0h-3.384a5.986 5.986 0 00-1.671-6.546 4.599 4.599 0 015.539 4.495c0 .715-.167 1.416-.484 2.05zm1.529 0a6.001 6.001 0 00.36-2.051 6.007 6.007 0 00-8.46-5.474 5.962 5.962 0 00-3.93-.342c-.176-.258-.339-.544-.417-.83-.13-.482.005-1.174.148-1.907.205-1.05.438-2.24-.08-3.25-.337-.659-.924-1.103-1.561-1.456.152-1 .289-2.194.879-2.497.547-.28 1.409.163 2.321.633.627.322 1.275.656 1.94.814.667.16 1.431.064 2.17-.029.95-.118 1.931-.241 2.529.196.422.31.632 1.143.835 1.948.227.9.46 1.83 1.04 2.542.52.641 1.342 1.018 2.137 1.383.802.369 1.632.75 1.928 1.327.295.576.12 1.472-.05 2.338-.167.859-.34 1.747-.124 2.545.24.885.859 1.619 1.457 2.328.524.622 1.063 1.264 1.09 1.781h-4.212zm.462 19.595a3.482 3.482 0 01-3.478 3.479H18.158a3.482 3.482 0 01-3.478-3.479v-1.619a17.79 17.79 0 004.026.46h12.588c1.372 0 2.72-.156 4.026-.458v1.617z" fill="#fff"/></symbol><symbol id="four" viewBox="-35 -30 116 109"><path d="M23.99 0C16.386 0 10.2 6.187 10.2 13.791a13.81 13.81 0 003.082 8.691.91.91 0 00.048.067l9.921 12.712a.937.937 0 001.478 0l9.97-12.779a13.821 13.821 0 003.083-8.691C37.781 6.187 31.594 0 23.99 0zm9.242 21.314a.886.886 0 00-.034.044L23.99 33.16l-9.115-11.677a.946.946 0 00-.076-.107 11.933 11.933 0 01-2.725-7.585c0-6.57 5.346-11.916 11.916-11.916 6.571 0 11.917 5.346 11.917 11.916 0 2.735-.95 5.406-2.675 7.523z" fill="#fff"/><path d="M32.078 11.602a.937.937 0 00-1.798.53 6.564 6.564 0 01-1.653 6.504 6.518 6.518 0 01-4.64 1.922c-1.752 0-3.4-.683-4.64-1.922a6.518 6.518 0 01-1.922-4.64c0-1.753.683-3.4 1.922-4.64a6.562 6.562 0 016.51-1.651.937.937 0 10.532-1.798 8.436 8.436 0 00-8.367 2.124 8.382 8.382 0 00-2.471 5.965c0 2.254.877 4.372 2.47 5.966a8.382 8.382 0 005.966 2.47 8.382 8.382 0 005.966-2.47 8.438 8.438 0 002.125-8.36z" fill="#fff"/><path d="M29.968 8.047l-.016-.017a.938.938 0 00-1.326 1.326l.017.017a.934.934 0 001.325 0 .938.938 0 000-1.326zm8.434 20.575a.938.938 0 00-.586 1.781c5.202 1.712 8.308 4.277 8.308 6.861 0 2.185-2.254 4.396-6.183 6.066-4.243 1.803-9.903 2.795-15.94 2.795-6.036 0-11.697-.992-15.939-2.795-3.93-1.67-6.183-3.88-6.183-6.066 0-1.83 1.578-3.689 4.444-5.234 3.028-1.633 7.317-2.816 12.076-3.33a.937.937 0 10-.202-1.864c-4.994.54-9.527 1.798-12.764 3.544-3.552 1.915-5.43 4.296-5.43 6.884 0 3.017 2.602 5.784 7.326 7.791C11.798 46.955 17.719 48 24 48c6.283 0 12.204-1.046 16.673-2.945 4.723-2.007 7.325-4.774 7.325-7.79 0-3.486-3.498-6.636-9.597-8.643z" fill="#fff"/><path d="M34.113 27.499l-.033-.007a.938.938 0 00-.37 1.838l.032.007a.938.938 0 00.37-1.838zm-17.2 4.097a.938.938 0 10-1.839.368.938.938 0 001.839-.368z" fill="#fff"/><path d="M27.126 30.07a.937.937 0 00-.146 1.87c6.12.478 9.38 2.268 9.38 3.376 0 .535-.852 1.443-3.254 2.243-2.419.805-5.653 1.25-9.108 1.25-3.454 0-6.689-.444-9.107-1.25-2.402-.8-3.254-1.708-3.254-2.243 0-.488.662-1.104 1.772-1.647a.937.937 0 10-.824-1.684c-2.333 1.142-2.823 2.442-2.823 3.331 0 3.524 7.162 5.367 14.236 5.367 7.075 0 14.237-1.843 14.237-5.367 0-3.23-5.984-4.845-11.109-5.246z" fill="#fff"/></symbol></svg>