<svg xmlns="http://www.w3.org/2000/svg">
  <symbol id="bg" viewBox="0 0 115 105">
    <path d="M28.148 23.193c-8.999 8.836-18.005 22.899-17.89 35.698.273 29.895 41.735 38.473 65.127 32.607 14.862-3.73 28.466-15.136 31.171-29.96 1.76-9.646-1.182-19.68-6.492-27.914C83.158 7.394 51.781.002 28.148 23.193z" fill="#518B26"/>
  </symbol>
  <symbol id="basket" viewBox="0 0 24 23">
    <path d="M23.678 7.267a1.376 1.376 0 0 0-1.058-.494h-2.21L16.904.74A1.493 1.493 0 0 0 15.617 0h-1.87a.866.866 0 0 0-.748 1.297l3.181 5.475H7.713l3.181-5.475A.866.866 0 0 0 10.147 0h-1.87C7.748 0 7.255.284 6.99.741L3.485 6.773H1.379A1.376 1.376 0 0 0 .022 8.394l1.91 10.716a4 4 0 0 0 3.943 3.302h12.25a4 4 0 0 0 3.942-3.302l1.911-10.716a1.376 1.376 0 0 0-.3-1.127zm-8.989-5.86h.928c.029 0 .056.016.07.04l3.095 5.326h-.975l-3.118-5.366zm-6.483.04a.082.082 0 0 1 .07-.04h.928L6.086 6.773h-.974l3.094-5.325zm12.477 17.416a2.595 2.595 0 0 1-2.558 2.142H5.875a2.597 2.597 0 0 1-2.558-2.142L1.945 11.17h20.11l-1.372 7.693zm1.622-9.1H1.695L1.412 8.18h21.176l-.283 1.584z" fill="#fff"/>
  </symbol>
</svg>