<svg width="83" height="81" fill="none" xmlns="http://www.w3.org/2000/svg"><path d="m159.226-79.56.075.075.084.064c5.34 4.02 10.818 7.946 16.254 11.828l1.119.8c5.06 3.613 10.071 7.192 14.909 10.792 10.395 7.736 19.914 15.517 27.268 23.824 7.349 8.301 12.473 17.058 14.182 26.739 1.706 9.657.043 20.399-6.473 32.741-12.945 24.517-45.034 39.506-81.357 46.557-36.229 7.032-76.134 6.056-104.02-.886-18.412-4.583-29.19-15.222-34.71-29.392C.999 29.317.735 11.375 3.679-7.736c5.887-38.21 24.489-80.425 37.743-105.529 6.503-12.317 14.447-18.771 23.203-21.121 8.808-2.364 18.74-.659 29.35 3.977 21.259 9.288 44.497 30.007 65.251 50.85z" stroke="#ECECEC" stroke-width="3"/></svg>