<svg width="67" height="84" fill="none" xmlns="http://www.w3.org/2000/svg"><path d="M8.407 57.523c-1.915-.753-3.907.85-3.614 2.886.913 5.89 2.467 11.756 6.024 13.871 1.9 1.149 4.127 2.033 4.652 4.01.205 1.003.009 2.022.153 2.904.275 1.556 1.437 2.936 3.034 3.59.626.26 1.237.422 1.613.753.812.783-.437 3.111-.054 4.287 1.258 3.256 5.201 2.38 6.73 3.66 1.335 1.09.935 1.104 2.305 2.773.983 1.208 2.857 1.525 4.423.886 1.566-.639 2.841-2.136 2.85-3.677.039-1.919-.147-2.442-.109-4.36.078-2.168 1.274-2.675 2.114-3.447 1.559-1.483 1.358-4.49-.262-5.594-.9-.638-2.03-.724-3.117-1.09-1.597-.655-1.25-1.235-1.756-2.732-.517-1.134-.461-2.572-1.234-3.603-.738-.946-2.038-1.57-3.58-1.276-.819.043-3.314-.072-3.987-.435-.313-.13-.587-.508-.813-.783-1.15-1.744 1.756-5.079-.449-5.513-1.358-.362-6.286.214-7.744-.021-4.094.137-4.699-3.126-5.608-5.484a2.727 2.727 0 0 0-1.532-1.551c.005-.031-.026-.036-.04-.054zM52.262 2.386c-1.297-2.343-4.625-2.384-6.017-.1-3.964 6.667-7.265 13.838-5.449 18.908.954 2.726 2.457 5.458 1.345 7.877-.626 1.176-1.666 2.035-2.252 3.04-1.013 1.788-.991 4.136.069 6.115.413.78.89 1.448.994 2.092.167 1.459-3.016 2.759-3.605 4.256-1.437 4.31 3.246 6.696 3.718 9.247.438 2.2.024 1.883.016 4.692-.015 2.026 1.602 3.897 3.703 4.554 2.1.657 4.62.211 5.906-1.327 1.629-1.894 1.875-2.573 3.503-4.466 1.874-2.109 3.494-1.628 4.976-1.706 2.793-.196 5.083-3.379 4.372-5.828-.374-1.386-1.437-2.41-2.224-3.677-1.06-1.98-.23-2.274.502-4.196.42-1.566 1.668-2.962 1.748-4.637.042-1.56-.745-3.262-2.535-4.247-.857-.634-3.265-2.817-3.64-3.739-.206-.39-.167-.995-.166-1.458.29-2.704 5.969-3.64 4.116-5.903-1.062-1.488-6.483-4.994-7.75-6.437-4.222-3.256-2.125-7.03-1.084-10.148.321-.935.213-1.956-.252-2.826.031-.027.004-.058.006-.086z" fill="#009C00"/></svg>