<svg xmlns="http://www.w3.org/2000/svg" viewBox="0 0 69.6 71.9" style="enable-background:new 0 0 69.6 71.9" xml:space="preserve"><path style="fill-rule:evenodd;clip-rule:evenodd;fill:#6f9730" d="M59.2 16.1h9V.3h-9v15.8z"/><path d="M68.4 0h-9.3c-.3 0-.6.1-.8.3-.2.3-.3.6-.3.9v1.2H33.8c-1 0-2.1.3-3 .8L19.4 9.3H5.8c-2 0-3.5 2-3.5 4.6 0 2.4 1.3 4.4 3.1 4.6L.2 36.2c-.1.5-.2 1-.2 1.5v33.1c0 .3.1.6.3.8.2.2.5.3.8.3h52.2c.3 0 .6-.1.8-.3.2-.2.3-.5.3-.8v-33c0-.6-.1-1.1-.2-1.6l-4.8-16.4c1.6 0 3.1-.6 4.2-1.7 1.2-1.1 1.9-2.5 2-4.1H58v2.3c0 .3.1.6.3.8.2.2.5.3.8.3h9.3c.3 0 .6-.1.8-.3.2-.2.3-.5.3-.8V1.2c0-.3-.1-.6-.3-.8-.1-.3-.4-.4-.8-.4zM4.6 13.9c0-1.4.7-2.3 1.2-2.3H39l-4.6 4.6H5.8c-.5 0-1.2-.9-1.2-2.3zm36.2 22.4c-.1.5-.2.9-.2 1.4v31.9H2.3V37.7c0-.3 0-.6.1-.8l5.4-18.3h24.4c-.6 1-.8 2.2-.6 3.4.2 1.2.8 2.2 1.7 3 .9.8 2 1.2 3.2 1.3 1.2 0 2.4-.3 3.3-1.1l5.6-4.3-4.6 15.4zm6.8 30.3 3 3h-6l3-3zm4.5-29.8c.1.3.1.6.1 1V68l-3.5-3.5v-25c0-.3-.1-.6-.3-.8-.2-.2-.5-.3-.8-.3-.3 0-.6.1-.8.3-.2.2-.3.5-.3.8v25L42.9 68V37.7c0-.3 0-.6.1-.8l4.5-15.4 4.6 15.3zM58 11.6h-2.8c-.5 0-1 .2-1.3.5-.3.3-.5.8-.5 1.3 0 1-.4 2.1-1.2 2.8-.7.7-1.7 1.2-2.8 1.2h-2.9c-.4 0-.7.1-1 .3l-7.2 5.6c-.6.4-1.3.6-2 .6-.7-.1-1.4-.4-1.8-.9-.5-.5-.7-1.2-.7-1.9s.3-1.4.8-1.9l7.9-7.9c.2-.2.3-.4.3-.6 0-.2 0-.5-.1-.7-.1-.2-.2-.4-.4-.5-.2-.1-.4-.2-.6-.2H24.3l7.6-4.2c.6-.3 1.2-.5 1.9-.5H58v7zm9.3 3.5h-7V2.3h7v12.8z" style="fill-rule:evenodd;clip-rule:evenodd;fill:#302f2f"/><path d="M21.5 53.8c-5.3 0-9.5-4.3-9.5-9.5 0-5.3 4.3-9.5 9.5-9.5 5.3 0 9.5 4.3 9.5 9.5s-4.3 9.5-9.5 9.5zm0-20.5c-6.1 0-11 4.9-11 11s4.9 11 11 11 11-4.9 11-11c-.1-6.1-5-11-11-11zm-.9 5.8c-1.9.4-3.4 1.7-4 3.6-.1.3-.4.5-.7.5h-.2c-.4-.1-.6-.5-.5-.9.7-2.4 2.7-4.1 5.1-4.6.4-.1.8.2.8.6.2.3-.1.7-.5.8zm.9-3c-4.5 0-8.2 3.7-8.2 8.2 0 4.5 3.7 8.2 8.2 8.2s8.2-3.7 8.2-8.2c-.1-4.6-3.7-8.2-8.2-8.2z" style="fill:#bb252b"/><path d="M24.1 31.3c.8-.7.9-1.6.9-1.6s-1.4.1-2.4.7l-.2.2c0-.9-.9-1.6-.9-1.6s-.8.6-.9 1.4c-.9-.7-2.4-.8-2.4-.8s.1.9.8 1.6c-1.3-.2-2.4.2-2.4.2s.9.8 2.2 1c1.2.2 2.3-.1 2.5-.2.3.1 1.4.4 2.6.3 1.4-.2 2.4-1 2.4-1s-1-.3-2.2-.2z" style="fill:#6f9730"/></svg>