<svg version="1.1" id="Layer_1" xmlns="http://www.w3.org/2000/svg" x="0" y="0" viewBox="0 0 73.5 73.5" style="enable-background:new 0 0 73.5 73.5" xml:space="preserve"><style>.st0,.st1{fill-rule:evenodd;clip-rule:evenodd;fill:#6f9730}.st1{fill:#302f2f}</style><path class="st0" d="M60.5 73.5c-4.6 0-8.3-3.7-8.3-8.3h16.6c0 4.6-3.8 8.3-8.3 8.3zM22.5 73.5c-4.6 0-8.3-3.7-8.3-8.3 0-4.6 3.7-8.3 8.3-8.3 4.6 0 8.3 3.7 8.3 8.3 0 4.6-3.7 8.3-8.3 8.3zm0-10.7c-1.3 0-2.4 1.1-2.4 2.4 0 1.3 1.1 2.4 2.4 2.4 1.3 0 2.4-1.1 2.4-2.4 0-1.3-1.1-2.4-2.4-2.4zM55.7 30.8h-7.1c-2 0-3.6-1.6-3.6-3.6s1.6-3.6 3.6-3.6h7.1v7.2zM35.6 9.3H4.7V2.4h30.9v6.9z"/><path class="st1" d="M22.5 61.6c-2 0-3.6 1.6-3.6 3.6s1.6 3.6 3.6 3.6 3.6-1.6 3.6-3.6-1.6-3.6-3.6-3.6zm0 4.8c-.7 0-1.2-.5-1.2-1.2s.5-1.2 1.2-1.2 1.2.5 1.2 1.2-.5 1.2-1.2 1.2z"/><path class="st1" d="m65 53-2.1-17.9c.7.3 1.5.5 2.4.5h3.6c1.3 0 2.4-1.1 2.4-2.4v-7.1c0-1.3-1.1-2.4-2.4-2.4H54.5v29.9c-1.6.8-3 2-4.1 3.3h-5.7l-4.1-14.2H45v-1.2c0-4.2-3.1-7.6-7.1-8.2V1.2c0-.3-.1-.6-.3-.8-.2-.3-.5-.4-.8-.4H3.5c-.3 0-.6.1-.8.3-.2.3-.3.6-.3.9v32.3C1 33.9 0 35.2 0 36.8v2.4c0 2 1.6 3.6 3.6 3.6H8C4.6 45 2.4 48.9 2.4 53.3v13h9.5v-1.2c0-5.9 4.8-10.7 10.7-10.7 5.9 0 10.7 4.8 10.7 10.7v1.2h40.3v-1.2c-.1-5.5-3.7-10.3-8.6-12.1zM35.6 2.4v7H4.7v-7H35.6zm-30.9 0zm64.1 23.7v7.1h-3.6c-1.1 0-2.1-.5-2.7-1.3-.5-.6-.8-1.4-.8-2.2 0-2 1.6-3.6 3.6-3.6h3.5zm-11.9 0h3.6c-.8 1-1.2 2.2-1.2 3.6 0 1.2.3 2.2.9 3.1l2.3 19.6c-.7-.1-1.3-.2-2-.2-1.2 0-2.4.2-3.6.5V26.1zM4.7 33.2V11.7h30.8v21.5H4.7zm-1.1 7.1c-.7 0-1.2-.5-1.2-1.2v-2.4c0-.7.5-1.2 1.2-1.2h33.2c2.9 0 5.3 2 5.8 4.7h-39v.1zM35.5 64c-.6-6.6-6.2-11.9-13-11.9S10.1 57.3 9.5 64H4.7V53.3c0-5.9 4.8-10.7 10.7-10.7h22.8L43 59.3h5.9c-.7 1.4-1.2 3-1.4 4.7h-12zm14.4 0c.6-5.3 5.1-9.5 10.6-9.5s10 4.2 10.6 9.5H49.9z"/><path d="M20.2 28.6c-3.4 0-6.1-2.7-6.1-6.1 0-3.4 2.7-6.1 6.1-6.1 3.4 0 6.1 2.7 6.1 6.1 0 3.3-2.8 6.1-6.1 6.1zm0-13.2c-3.9 0-7 3.1-7 7s3.1 7 7 7 7-3.1 7-7c0-3.8-3.2-7-7-7zm-.6 3.7c-1.2.2-2.2 1.1-2.6 2.3-.1.2-.2.3-.4.3h-.1c-.2-.1-.4-.3-.3-.6.5-1.5 1.7-2.6 3.3-2.9.2 0 .5.1.5.4 0 .3-.1.5-.4.5zm.6-1.9c-2.9 0-5.2 2.3-5.2 5.2 0 2.9 2.3 5.2 5.2 5.2 2.9 0 5.2-2.3 5.2-5.2 0-2.8-2.4-5.2-5.2-5.2z" style="fill:#bb252b"/><path d="M21.8 14.1c.5-.4.6-1 .6-1s-.9 0-1.5.5c-.1 0-.1.1-.1.1 0-.6-.6-1-.6-1s-.5.4-.6.9c-.6-.4-1.6-.5-1.6-.5s0 .6.5 1.1c-.8-.2-1.5.1-1.5.1s.6.5 1.4.7c.7.1 1.4-.1 1.6-.1.2.1.9.3 1.7.2.9-.1 1.5-.6 1.5-.6s-.6-.4-1.4-.4z" style="fill:#6f9730"/></svg>