<svg width="16" height="20" xmlns="http://www.w3.org/2000/svg"><path d="M7.823 10.289a4.82 4.82 0 0 0 4.814-4.814A4.82 4.82 0 0 0 7.823.661a4.82 4.82 0 0 0-4.814 4.814 4.82 4.82 0 0 0 4.814 4.814zm0-7.752a2.942 2.942 0 0 1 2.938 2.938c0 1.62-1.318 2.939-2.938 2.939S4.884 7.095 4.884 5.475a2.942 2.942 0 0 1 2.939-2.938zm0 8.354C3.509 10.89 0 14.27 0 18.424v.891h15.645v-.891c0-4.154-3.509-7.533-7.822-7.533zm-5.9 6.641c.446-2.749 2.922-4.858 5.9-4.858 2.977 0 5.453 2.11 5.899 4.858H1.923z" fill="#518B26"/></svg>