<svg xmlns="http://www.w3.org/2000/svg" fill="#518B26"><symbol id="mark" width="13" height="18"><path d="M11.559 3.089A6.128 6.128 0 006.199 0a6.128 6.128 0 00-5.36 3.089 6.104 6.104 0 000 6.177l4.9 8.469a.532.532 0 00.92 0l4.9-8.47a6.104 6.104 0 000-6.176zm-.922 5.645L6.2 16.407 1.761 8.734a5.054 5.054 0 010-5.114 5.075 5.075 0 014.438-2.558c1.853 0 3.512.956 4.438 2.558a5.054 5.054 0 010 5.114z"/><path d="M6.2 3.183a3.181 3.181 0 00-3.18 3.174 3.18 3.18 0 006.36 0A3.181 3.181 0 006.2 3.182zm0 5.286a2.117 2.117 0 01-2.116-2.112 2.117 2.117 0 014.232 0c0 1.164-.95 2.112-2.116 2.112z"/></symbol><symbol id="email" width="20" height="16"><path d="M18.242 0H1.758A1.76 1.76 0 000 1.758v11.719a1.76 1.76 0 001.758 1.757h16.484A1.76 1.76 0 0020 13.477V1.757A1.76 1.76 0 0018.242 0zM18 1.172l-7.963 7.962-8.03-7.962H18zM1.172 13.234V1.994L6.816 7.59l-5.644 5.644zm.829.829l5.647-5.648 1.979 1.962c.229.227.598.226.826-.002l1.93-1.93L18 14.063H2zm16.827-.83l-5.617-5.616L18.828 2v11.234z"/></symbol><symbol id="phone" width="13" height="20"><path d="M10.77 20H1.863c-.99 0-1.797-.806-1.797-1.797V1.797C.066.807.872 0 1.863 0h8.907c.99 0 1.796.806 1.796 1.797v16.406c0 .99-.806 1.797-1.796 1.797zM1.863 1.25a.547.547 0 00-.547.547v16.406c0 .302.246.547.547.547h8.907a.547.547 0 00.546-.547V1.797a.547.547 0 00-.546-.547H1.863z"/><path d="M7.566 3.438h-2.5a.625.625 0 110-1.25h2.5a.625.625 0 010 1.25zM6.316 18a1 1 0 100-2 1 1 0 000 2z"/></symbol><symbol id="clock" width="18" height="18"><path d="M.15 9C.15 4.115 4.106.15 8.991.15 13.885.15 17.85 4.115 17.85 9s-3.965 8.85-8.859 8.85C4.106 17.85.15 13.885.15 9zm1.5 0c0 4.06 3.29 7.35 7.35 7.35s7.35-3.29 7.35-7.35S13.06 1.65 9 1.65 1.65 4.94 1.65 9z" stroke="#fff" stroke-width=".3"/><path d="M9.25 5H8v4.59L12.375 12l.625-.941-3.75-2.043V5z"/></symbol></svg>