<svg xmlns="http://www.w3.org/2000/svg"><symbol id="heart" viewBox="-1 -1 24 21"><path d="M10.92 18.79c-.3 0-.59-.109-.816-.307a246.9 246.9 0 0 0-2.402-2.065l-.003-.004c-2.128-1.813-3.966-3.379-5.244-4.921C1.026 9.768.36 8.133.36 6.347c0-1.735.595-3.336 1.676-4.508A5.68 5.68 0 0 1 6.26 0C7.48 0 8.596.385 9.58 1.145c.496.384.945.854 1.341 1.401a6.788 6.788 0 0 1 1.342-1.4A5.312 5.312 0 0 1 15.58 0a5.68 5.68 0 0 1 4.225 1.839c1.08 1.172 1.675 2.773 1.675 4.508 0 1.786-.665 3.421-2.094 5.146-1.279 1.542-3.116 3.108-5.243 4.921-.727.62-1.551 1.322-2.406 2.07a1.24 1.24 0 0 1-.817.306z"/></symbol><symbol id="info"  viewBox="0 0 7 13"><path d="M4.376 1.25a.875.875 0 1 1-1.75 0 .875.875 0 0 1 1.75 0zM3.5 12.625a.656.656 0 0 1-.655-.656V5.188H1.97a.656.656 0 0 1 0-1.313H3.5c.363 0 .657.294.657.656v7.438a.656.656 0 0 1-.656.656z" fill="#fff"/><path d="M5.469 12.624H1.53a.656.656 0 0 1 0-1.312H5.47a.657.657 0 0 1 0 1.313z" fill="#fff"/></symbol><symbol id="proteins" viewBox="0 0 17 17"><g fill="#518B26"><path d="m16.648 8.036-.022-.455c-.09-1.96-.446-4.399-2.433-5.872-.984-.73-2.14-1.275-3.256-1.535C9.592-.14 8.354-.027 7.36.5c-.912.482-1.51 1.266-2.037 1.957-.62.814-1.157 1.518-2.078 1.709-.85.177-1.624.846-2.178 1.885-.494.925-.777 2.086-.777 3.186 0 2.536 1.567 3.121 2.95 3.638.456.17.928.347 1.339.59.544.322.918.811 1.314 1.33.484.635.985 1.291 1.832 1.701.69.334 1.52.504 2.408.504a7.61 7.61 0 0 0 1.817-.227c1.55-.382 2.86-1.198 3.594-2.238 1.332-1.886 1.212-4.337 1.105-6.499zm-1.954 5.9c-.592.839-1.684 1.506-2.994 1.83-1.287.317-2.604.24-3.523-.205-.624-.302-1.03-.833-1.46-1.396-.438-.575-.892-1.17-1.61-1.594-.49-.29-1.006-.483-1.505-.669-1.32-.493-2.274-.85-2.274-2.665 0-1.924.994-3.819 2.127-4.054 1.301-.27 2.009-1.199 2.693-2.096.507-.665.986-1.294 1.697-1.67.502-.265 1.066-.381 1.653-.381 1.399 0 2.93.656 4.077 1.507 1.635 1.213 1.935 3.355 2.014 5.085.006.151.014.304.022.46.098 1.994.209 4.254-.917 5.848z"/><path d="M10.175 5.953A3.94 3.94 0 0 0 6.238 9.89a3.94 3.94 0 0 0 3.936 3.937 3.94 3.94 0 0 0 3.937-3.937 3.94 3.94 0 0 0-3.937-3.936zm0 6.834a2.9 2.9 0 0 1-2.898-2.898 2.9 2.9 0 0 1 2.897-2.897 2.9 2.9 0 0 1 2.898 2.897 2.9 2.9 0 0 1-2.897 2.898z"/><path d="m8.852 9.668.001.004-1.025.168c.012.07.302 1.723 2.033 2.3l.329-.985c-1.126-.375-1.33-1.442-1.338-1.487z"/></g></symbol><symbol id="fats" viewBox="0 0 17 19"><path d="M5.574.99 5.57.986a.443.443 0 0 0-.638 0L4.929.99c-.085.094-1.1 1.234-2.095 2.695-.497.73-.992 1.545-1.362 2.35-.37.804-.622 1.613-.622 2.33 0 1.485.384 2.66 1.138 3.465.756.807 1.863 1.219 3.263 1.219s2.507-.412 3.263-1.218c.754-.805 1.138-1.98 1.138-3.467 0-.716-.252-1.525-.622-2.328-.37-.806-.865-1.62-1.362-2.351A28.167 28.167 0 0 0 5.574.99zM3.23 4.66a28.038 28.038 0 0 1 2.02-2.716c.445.53 1.275 1.56 2.02 2.716.408.632.788 1.299 1.065 1.94.279.643.45 1.25.45 1.764 0 .892-.159 1.847-.673 2.576-.508.72-1.38 1.242-2.862 1.242S2.897 11.66 2.39 10.94c-.515-.729-.673-1.684-.673-2.576 0-.514.17-1.12.449-1.764.278-.641.658-1.308 1.065-1.94zm10.273 1.425-.004-.003a.442.442 0 0 0-.628 0l-.003.003c-.05.054-.641.695-1.221 1.547a9.1 9.1 0 0 0-.797 1.398c-.216.489-.365.995-.365 1.467 0 .966.238 1.747.703 2.29.469.545 1.151.828 1.997.828.846 0 1.529-.283 1.997-.828.466-.543.704-1.324.704-2.29 0-.472-.15-.978-.366-1.467a9.092 9.092 0 0 0-.796-1.398 14.29 14.29 0 0 0-1.221-1.547zm-1.387 2.413a13.43 13.43 0 0 1 1.07-1.458c.28.336.7.868 1.069 1.458.426.683.764 1.415.764 2 0 .779-.163 1.339-.464 1.702-.295.358-.743.549-1.37.549-.626 0-1.074-.191-1.37-.549-.3-.363-.463-.923-.463-1.703 0-.584.337-1.316.764-2zm-3.22 3.827-.004.003c-.038.044-.486.555-.925 1.22-.22.331-.44.704-.604 1.078-.164.372-.28.756-.28 1.107 0 .744.187 1.35.557 1.773.372.425.912.644 1.577.644.665 0 1.205-.22 1.578-.644.37-.423.556-1.03.556-1.773 0-.35-.115-.735-.28-1.107a7.491 7.491 0 0 0-.603-1.079 12.18 12.18 0 0 0-.926-1.219l-.003-.003a.443.443 0 0 0-.643 0zm.321 4.958c-.438 0-.745-.132-.946-.373-.205-.246-.32-.63-.32-1.177 0-.167.048-.37.136-.598a5.05 5.05 0 0 1 .352-.71c.243-.414.535-.819.778-1.13.244.31.536.716.778 1.13.288.49.49.966.49 1.308 0 .546-.117.93-.322 1.177-.2.241-.507.373-.946.373z" fill="#518B26" stroke="#518B26" stroke-width=".3"/><path d="m4.656 11.764.029.001a.284.284 0 0 0 .028-.565 2.076 2.076 0 0 1-1.514-.774c-.754-.982-.504-2.567-.502-2.582a.283.283 0 0 0-.559-.093c-.013.074-.294 1.838.609 3.018a2.62 2.62 0 0 0 1.91.995zm8.247.568a1.973 1.973 0 0 0 1.386-.597c.315-.406.43-.934.31-1.434a.283.283 0 0 0-.559.094c.087.334.02.69-.182.97-.256.25-.598.393-.956.4a.283.283 0 0 0 0 .567zm-3.84 3.997a.325.325 0 0 1-.157-.47.284.284 0 0 0-.507-.253.892.892 0 0 0 .41 1.232.284.284 0 1 0 .253-.507v-.002z" fill="#518B26"/></symbol><symbol id="carbohydrates" viewBox="0 0 18 19"><path d="M7.842 15.203a.378.378 0 0 0-.535.03l-.022.026a.378.378 0 1 0 .553.516l.034-.038a.378.378 0 0 0-.03-.534z" fill="#518B26"/><path d="M8.57 12.523a.39.39 0 0 0-.33-.235c-.015 0-.091-.004-.212-.004.777-1.065.617-2.562.568-2.896a.379.379 0 0 0-.356-.356c-.015 0-.091-.004-.209-.004.774-1.061.614-2.558.569-2.892a.389.389 0 0 0-.36-.356c-.015 0-.091-.004-.212-.004.773-1.061.617-2.562.568-2.896a.382.382 0 0 0-.36-.356 5.13 5.13 0 0 0-1.217.106V1.379A.38.38 0 0 0 6.64 1a.38.38 0 0 0-.379.379v1.482a2.902 2.902 0 0 0-1.065.72V1.38A.38.38 0 0 0 4.817 1a.38.38 0 0 0-.379.379v2.198a2.918 2.918 0 0 0-1.065-.72V1.38a.38.38 0 0 0-.38-.38.38.38 0 0 0-.378.379v1.255c-.645-.133-1.171-.106-1.213-.106a.38.38 0 0 0-.356.352c-.046.326-.209 1.835.568 2.9-.121 0-.197.003-.212.003a.38.38 0 0 0-.356.353c-.046.326-.209 1.83.568 2.896-.117 0-.193.004-.208.004a.374.374 0 0 0-.357.352c-.049.326-.208 1.831.569 2.9-.121 0-.197.004-.212.004a.38.38 0 0 0-.357.352c-.049.345-.227 2.028.728 3.097.792.887 2.058 1.065 2.665 1.1v.685a.376.376 0 0 0 .11.372.398.398 0 0 0 .246.102h.031a.37.37 0 0 0 .265-.121l.034-.038a.358.358 0 0 0 .087-.239v-.011a.397.397 0 0 0-.019-.114v-.64a5 5 0 0 0 1.478-.308.376.376 0 0 0 .216-.489.38.38 0 0 0-.489-.216c-.443.17-.894.231-1.186.254-.042-.523-.042-1.569.535-2.213.58-.649 1.603-.785 2.118-.808.02.277.02.705-.08 1.149a.378.378 0 1 0 .74.163c.17-.77.09-1.524.057-1.736a.182.182 0 0 0-.015-.11zM1.773 3.289c.52.027 1.54.16 2.12.812.435.489.541 1.205.549 1.75v.126c0 .125-.008.239-.015.337-.512-.038-1.505-.197-2.081-.841-.58-.652-.603-1.672-.573-2.184zm0 3.256c.52.027 1.54.16 2.12.812.439.488.545 1.209.549 1.754v.118c0 .125-.008.243-.015.337a4.252 4.252 0 0 1-1.119-.227c-.022-.008-.049-.02-.072-.027-.326-.125-.648-.31-.894-.587-.576-.648-.599-1.668-.569-2.18zm0 3.249c.273.011.69.057 1.107.193.087.038.175.068.258.099.28.12.546.288.754.519.22.246.357.546.436.853.083.307.11.625.114.898v.125c0 .125-.008.239-.015.338-.512-.038-1.505-.198-2.085-.842-.576-.648-.599-1.668-.569-2.183zm2.654 6.28c-.512-.037-1.505-.197-2.085-.841-.58-.648-.603-1.668-.572-2.18.519.027 1.542.163 2.118.808.22.246.353.546.436.853.084.307.11.625.114.898v.125c.004.125 0 .239-.011.338zm1.33-11.973c.58-.649 1.603-.785 2.119-.808.03.512.008 1.532-.572 2.18-.577.644-1.573.803-2.085.841-.038-.527-.038-1.57.538-2.213zm1.55 4.624c-.246.277-.568.462-.894.587a4.247 4.247 0 0 1-1.19.254c-.042-.523-.042-1.565.534-2.213.58-.648 1.603-.785 2.119-.808.034.512.011 1.532-.569 2.18zm0 3.252c-.576.644-1.573.804-2.084.841-.042-.526-.042-1.565.534-2.213a2.12 2.12 0 0 1 .77-.527c.075-.026.147-.053.223-.083.425-.14.85-.186 1.13-.201.03.515.007 1.535-.573 2.183zm6.599-7.82a.375.375 0 0 0-.269-.11.375.375 0 0 0-.379.379c0 .103.042.198.11.27a.37.37 0 0 0 .27.11.399.399 0 0 0 .268-.11.369.369 0 0 0 .11-.27.392.392 0 0 0-.11-.269z" fill="#518B26"/><path d="M17.382 12.527a.383.383 0 0 0-.33-.235c-.015 0-.09-.004-.208-.004.77-1.062.614-2.559.569-2.892a.379.379 0 0 0-.36-.352c-.016 0-.091-.005-.213-.005.773-1.06.618-2.562.569-2.895a.379.379 0 0 0-.36-.353 5.13 5.13 0 0 0-1.217.106V4.434a.38.38 0 0 0-.379-.379.38.38 0 0 0-.38.38v1.682a2.95 2.95 0 0 0-1.064.72V5.64a.38.38 0 0 0-.38-.379.38.38 0 0 0-.378.38v1.19a2.949 2.949 0 0 0-1.065-.72V4.418a.38.38 0 0 0-.38-.38.38.38 0 0 0-.378.38v1.47c-.645-.132-1.172-.106-1.213-.106a.38.38 0 0 0-.357.353c-.045.326-.208 1.83.569 2.9-.121 0-.197.003-.212.003a.38.38 0 0 0-.357.353c-.045.326-.208 1.83.569 2.896-.121 0-.197.004-.209.004a.38.38 0 0 0-.356.352c-.05.345-.227 2.028.728 3.097.784.875 2.062 1.061 2.665 1.095v.702c-.004.007-.004.015-.004.022-.004.016-.004.027-.004.042a.374.374 0 0 0 .121.296.377.377 0 0 0 .535-.02c.011-.01.022-.026.034-.037a.367.367 0 0 0 .095-.239.313.313 0 0 0-.02-.133v-.633c.6-.038 1.884-.22 2.67-1.095.95-1.065.776-2.737.727-3.093a.27.27 0 0 0-.027-.121zm-6.796-5.982c.52.027 1.539.16 2.119.812.432.485.542 1.193.55 1.736v.144c0 .125-.008.235-.016.33-.511-.039-1.504-.198-2.084-.842-.576-.648-.6-1.668-.569-2.18zm2.672 5.803v.14c0 .126-.007.236-.015.33a4.25 4.25 0 0 1-1.118-.227c-.023-.007-.046-.019-.072-.026a2.275 2.275 0 0 1-.895-.588c-.58-.648-.602-1.668-.572-2.18.52.027 1.543.164 2.119.812.216.242.352.542.436.845.083.31.114.622.117.894zm0 3.397a7.117 7.117 0 0 1-.015.33c-.511-.038-1.505-.198-2.085-.842-.58-.652-.602-1.672-.572-2.183.273.015.69.057 1.107.193.087.038.174.068.258.099.28.12.545.288.754.519.216.242.352.542.436.845.083.307.11.618.117.89v.149zm1.316-8.388c.58-.649 1.6-.785 2.118-.812.03.512.008 1.532-.572 2.18-.576.644-1.573.803-2.085.841-.041-.523-.041-1.565.539-2.21zm1.546 7.876c-.576.644-1.573.804-2.085.841-.045-.523-.041-1.565.535-2.213a2.12 2.12 0 0 1 .77-.527c.075-.027.147-.053.223-.083a4.45 4.45 0 0 1 1.13-.201c.03.515.007 1.535-.573 2.183zm0-3.252c-.246.273-.569.459-.895.587-.022.008-.045.016-.068.027-.42.151-.841.208-1.118.227-.045-.523-.042-1.565.535-2.213.58-.648 1.6-.785 2.118-.811.03.515.008 1.535-.572 2.183z" fill="#518B26"/></symbol></svg>