<svg xmlns="http://www.w3.org/2000/svg"><defs><linearGradient id="a" gradientTransform="rotate(90)"><stop offset="12.22%" stop-color="#505FD1"/><stop offset="35.67%" stop-color="#CF2D93"/><stop offset="61.16%" stop-color="#F66635"/><stop offset="85.56%" stop-color="#FED16E"/></linearGradient></defs><symbol id="bg" viewBox="0 0 47 45"><path d="M45.21 18.17L45.21 18.17C46.79 22.99 47.06 28.41 45.22 33.06C42.39 40.18 34.9 44.36 27.61 44.5C21.86 44.60 14.36 42.39 8.7 38.13C3.05 33.94 -0.69 27.88 0.85 20.38C2.16 13.92 7.86 7.83 13.04 4.37C19.79 -0.12 26.55 -0.48 32.25 2.15C37.97 4.78 42.68 10.46 45.21 18.17Z"></path></symbol><symbol id="heart" viewBox="-14 -14 47 45" stroke="none"><path d="M10 17.887c-.285 0-.56-.103-.773-.29-.808-.707-1.587-1.37-2.274-1.956l-.004-.003c-2.015-1.717-3.755-3.2-4.965-4.66C.63 9.343 0 7.795 0 6.103c0-1.643.564-3.16 1.587-4.269a5.378 5.378 0 0 1 4-1.741A5.03 5.03 0 0 1 8.73 1.179c.47.363.895.807 1.27 1.326a6.43 6.43 0 0 1 1.27-1.326A5.03 5.03 0 0 1 14.414.094c1.544 0 2.965.618 4 1.741C19.438 2.945 20 4.461 20 6.105c0 1.69-.63 3.24-1.983 4.872-1.211 1.46-2.951 2.944-4.966 4.66-.688.587-1.468 1.252-2.278 1.96-.214.187-.488.29-.773.29zM5.587 1.265a4.22 4.22 0 0 0-3.14 1.364c-.822.893-1.276 2.127-1.276 3.475 0 1.423.53 2.695 1.715 4.126 1.145 1.382 2.85 2.835 4.823 4.516l.004.003c.69.588 1.471 1.255 2.285 1.966.82-.713 1.602-1.38 2.293-1.97 1.974-1.68 3.678-3.133 4.823-4.515 1.186-1.43 1.714-2.703 1.714-4.126 0-1.348-.453-2.582-1.276-3.475a4.22 4.22 0 0 0-3.139-1.364c-.889 0-1.705.283-2.426.84-.642.497-1.09 1.125-1.352 1.564A.734.734 0 0 1 10 4.03a.734.734 0 0 1-.635-.36c-.262-.44-.71-1.068-1.352-1.565a3.885 3.885 0 0 0-2.426-.84z"/></symbol><symbol id="menu" viewBox="-7 -9 47 45"><path d="M7 7h20M7 14h20M7 21h20" stroke-width="2"/></symbol><symbol id="phone" viewBox="-18 -12 47 45" stroke="none"><path d="M10.77 20H1.863c-.99 0-1.797-.806-1.797-1.797V1.797C.066.807.872 0 1.863 0h8.907c.99 0 1.796.806 1.796 1.797v16.406c0 .99-.806 1.797-1.796 1.797zM1.863 1.25a.547.547 0 00-.547.547v16.406c0 .302.246.547.547.547h8.907a.547.547 0 00.546-.547V1.797a.547.547 0 00-.546-.547H1.863z"/><path d="M7.566 3.438h-2.5a.625.625 0 110-1.25h2.5a.625.625 0 010 1.25zM6.316 18a1 1 0 100-2 1 1 0 000 2z"/></symbol><symbol id="mark" viewBox="-18 -13 47 45" stroke="none"><path d="M11.559 3.089A6.128 6.128 0 006.199 0a6.128 6.128 0 00-5.36 3.089 6.104 6.104 0 000 6.177l4.9 8.469a.532.532 0 00.92 0l4.9-8.47a6.104 6.104 0 000-6.176zm-.922 5.645L6.2 16.407 1.761 8.734a5.054 5.054 0 010-5.114 5.075 5.075 0 014.438-2.558c1.853 0 3.512.956 4.438 2.558a5.054 5.054 0 010 5.114z"/><path d="M6.2 3.183a3.181 3.181 0 00-3.18 3.174 3.18 3.18 0 006.36 0A3.181 3.181 0 006.2 3.182zm0 5.286a2.117 2.117 0 01-2.116-2.112 2.117 2.117 0 014.232 0c0 1.164-.95 2.112-2.116 2.112z"/></symbol><symbol id="clock" viewBox="-16 -14 47 45" stroke="none"><path d="M8.991 0C4.023 0 0 4.032 0 9s4.023 9 8.991 9C13.968 18 18 13.968 18 9s-4.032-9-9.009-9zM9 16.2A7.198 7.198 0 0 1 1.8 9c0-3.978 3.222-7.2 7.2-7.2s7.2 3.222 7.2 7.2-3.222 7.2-7.2 7.2z"/><path d="M9.25 5H8v4.59L12.375 12l.625-.941-3.75-2.043V5z"/></symbol><symbol id="fb" viewBox="-21 -15 47 45" stroke="none"><path d="M5.722 2.325H7V.099A16.5 16.5 0 0 0 5.138 0C3.296 0 2.033 1.16 2.033 3.29v1.96H0v2.489h2.033V14h2.493V7.74h1.951l.31-2.49H4.526V3.537c0-.72.194-1.211 1.196-1.211z"/></symbol><symbol id="inst" viewBox="-16 -15 47 45" stroke="none"><path d="M11.584 0H4.415A4.42 4.42 0 0 0 0 4.415v7.17A4.42 4.42 0 0 0 4.415 16h7.17A4.42 4.42 0 0 0 16 11.585v-7.17A4.42 4.42 0 0 0 11.584 0zm2.996 11.585a3 3 0 0 1-2.995 2.995h-7.17a3 3 0 0 1-2.995-2.995v-7.17A3 3 0 0 1 4.415 1.42h7.17a3 3 0 0 1 2.995 2.995v7.17z"/><path d="M8 3.877A4.127 4.127 0 0 0 3.877 8 4.127 4.127 0 0 0 8 12.123 4.127 4.127 0 0 0 12.123 8 4.127 4.127 0 0 0 8 3.877zm0 6.826A2.706 2.706 0 0 1 5.297 8 2.706 2.706 0 0 1 8 5.297 2.706 2.706 0 0 1 10.703 8 2.706 2.706 0 0 1 8 10.703zM12.296 2.674a1.045 1.045 0 0 0-1.041 1.04c0 .274.112.543.306.737.193.193.461.305.735.305.274 0 .542-.112.736-.305a1.046 1.046 0 0 0 0-1.473 1.046 1.046 0 0 0-.736-.304z"/></g></symbol></svg>
