<svg width="87" height="12" fill="none" xmlns="http://www.w3.org/2000/svg"><path fill-rule="evenodd" clip-rule="evenodd" d="M58.687 0c-3.31 0-6 2.69-6 6s2.69 6 6 6 6-2.69 6-6c.013-3.31-2.678-6-6-6zm0 10.118c-2.286 0-4.143-1.857-4.143-4.118 0-2.274 1.857-4.118 4.143-4.118A4.127 4.127 0 0 1 62.805 6a4.102 4.102 0 0 1-4.118 4.118zM79.603 2.185v2.88h5.027v1.882h-5.027v2.868h5.773v1.882h-7.63V.316h7.63v1.87h-5.773zM75.373.303V11.71h-1.755l-5.192-7.768v7.769h-1.895V.303h1.693l.215.29 5.052 7.428V.303h1.882zM51.777.303v1.895h-3.613v9.511h-1.895V2.199h-3.612V.303h9.12zM41.749 8.59c-.038 1.023-.518 1.92-1.34 2.564-.782.58-1.78.859-2.841.859-.063 0-.152 0-.253-.013-1.15-.038-2.185-.417-2.968-1.137-.645-.58-1.061-1.402-1.175-2.311v-.758h1.831l.051.606c.076.442.29.846.619 1.15.404.366.972.568 1.756.606.783.025 1.402-.152 1.819-.442.404-.29.606-.695.619-1.15v-.012c.025-.48-.165-.847-.67-1.188-.467-.315-1.124-.518-1.743-.707l-.114-.038-.34-.101-.24-.076c-.57-.177-1.352-.417-1.997-.871-.833-.569-1.288-1.365-1.25-2.362.025-.973.493-1.832 1.314-2.4.77-.544 1.819-.822 2.905-.784 1.743.076 3.183.948 3.79 2.438v.013l.189.581-1.781.493-.177-.417c-.303-.733-1.061-1.226-2.084-1.263-.783-.013-1.352.151-1.718.404-.367.265-.543.594-.556 1.01 0 .165.038.304.114.417.075.127.227.265.467.417.48.29 1.162.505 1.832.707l.176.05h.013c.025.014.05.014.076.026.657.202 1.541.48 2.274.973.934.619 1.452 1.566 1.402 2.716zM25.943.303h-3.752V11.71h3.752c3.158 0 5.747-2.564 5.747-5.696-.012-3.146-2.59-5.71-5.747-5.71zm0 9.524h-1.87V2.185h1.87c2.147 0 3.865 1.718 3.865 3.828 0 2.122-1.73 3.814-3.865 3.814zM14.225 2.185v2.88h5.015v1.882h-5.015v2.868h5.76v1.882h-7.63V.316h7.63v1.87h-5.76zM10.397 11.697H8.174L5.749 7.718H2.755L1.643 5.861h4.623a1.86 1.86 0 0 0 1.857-1.857A1.865 1.865 0 0 0 6.266 2.16H1.151L.039.33h6.215A3.671 3.671 0 0 1 9.93 4.004a3.718 3.718 0 0 1-2.148 3.373l2.615 4.32z" fill="#1E1E1E"/><path d="M.379 9.423h2.274v2.274H.379V9.422z" fill="#E70000"/></svg>