<svg width="200" height="255" fill="none" xmlns="http://www.w3.org/2000/svg"><path d="M.612 17.29c-5.531-2.764-12.295.841-12.26 6.474.3 16.323 2.568 32.82 12.54 39.895 5.317 3.83 11.75 7.063 12.518 12.625.2 2.799-.828 5.489-.76 7.937.182 4.323 3.149 8.503 7.75 10.879 1.804.94 3.6 1.608 4.609 2.647 2.151 2.43-2.65 8.278-1.975 11.611 2.466 9.308 14.882 8.409 19.009 12.455 3.62 3.458 2.392 3.349 5.872 8.389 2.492 3.647 8.082 5.212 13.137 4.066 5.055-1.145 9.582-4.728 10.262-8.907.928-5.191.58-6.681 1.508-11.872 1.155-5.85 5.02-6.778 7.913-8.556 5.39-3.439 6.049-11.673 1.566-15.276-2.478-2.068-5.898-2.728-9.063-4.128-4.601-2.375-3.293-3.82-4.208-8.072-1.103-3.269-.322-7.15-2.247-10.238-1.856-2.844-5.563-5.022-10.4-4.807-2.517-.19-10.09-1.438-11.994-2.675-.902-.47-1.577-1.599-2.151-2.43-2.78-5.164 7.51-13.12.957-15.126-3.994-1.49-19.293-1.78-23.647-2.964C6.982 38.051 6.515 28.971 4.734 22.234c-.517-2.03-2.004-3.74-4.025-4.783.028-.083-.065-.108-.097-.162z" fill="#009C00"/><path d="M182.216 176.886c-3.26.576-10.684 3.556-11.883 4.166-1.199.611-2.32.932-3.439-.3-.476-.542-1.178-.626-1.861-.395-1.875.429-5.351 3.742-5.719 3.955-.49.282-.973.153-1.256-.337-.282-.49-.603-1.611-1.008-2.03-.644-.69-1.127-.82-1.958-.421-1.392.559-7.749 4.963-8.561 5.677-.69.644-1.404-.169-2.196-.691-.361-.201-.818-.427-1.159-.311-5.787 2.28-8.41 8.203-8.593 10.431-.183 2.229-1.335 1.506-1.489.533-.108-.753-.255-2.139-1.315-3.976-1.061-1.837-3.945-3.438-5.446-3.633-1.526-.098-4.973 5.811-5.794 8.49-.485 1.423-.706 3.02-.998 4.495-.498 2.247-2.084 2.754-4.031 4.614-4.34 4.22-4.532 8.413-3.563 11.365.924 2.732 3.599 6.658 5.581 8.535 1.744 1.606 3.158 4.055 3.799 6.298.847 3.022 3.376 5.563 6.215 6.945 2.214 1.007 2.337.937 3.802-1.052.47-.598.812-.714 1.507-.217.863.645 1.699 1.387 2.806 1.891 4.79 2.215 9.784.965 10.262-.046 1.156-2.382-3.166-7.888-2.74-8.706.426-.818 2.549 1.304 4.184 2.157 1.635.852 3.767 1.009 5.301.695.56-.16 1.128-.733 1.476-1.261.175-.264.497-.695.787-.617 1.333.047 6.042-.141 8.758-2.933.445-.502.6-1.082.44-1.642-.307-1.946-1.625-4.37-1.696-4.492-.257-.587-.179-.877.549-.889.412.007 3.8.501 7.241-.751 3.1-1.136 6.441-5.107 6.733-6.582.162-.991-1.4-3.274-1.754-3.886-.257-.587-.153-.973.459-1.326 1.811-.965 3.159-1.742 5.403-3.936 5.675-5.726 8.08-13.157 7.901-14.033-.083-.851-.933-.768-.926-1.18.129-.483 4.815-7.924 11.406-14.751.021-1.237-10.898-1.056-17.225.147z" fill="#5D3287"/></svg>